<?xml version="1.0" standalone="no"?>
<!DOCTYPE svg PUBLIC "-//W3C//DTD SVG 20010904//EN"
 "http://www.w3.org/TR/2001/REC-SVG-20010904/DTD/svg10.dtd">
<svg version="1.0" xmlns="http://www.w3.org/2000/svg"
 width="80.000000pt" height="37.000000pt" viewBox="0 0 80.000000 37.000000"
 preserveAspectRatio="xMidYMid meet">

<g transform="translate(0.000000,37.000000) scale(0.100000,-0.100000)"
fill="#000000" stroke="none">
<path d="M7 363 c-4 -3 -7 -42 -7 -85 l0 -78 50 0 c48 0 50 1 50 27 l0 26 23
-20 c30 -27 52 -34 66 -20 18 18 13 26 -39 52 -42 21 -50 30 -50 53 0 15 5 33
12 40 9 9 0 12 -43 12 -31 0 -59 -3 -62 -7z"/>
<path d="M230 344 l0 -25 -26 20 c-15 12 -35 21 -46 21 -32 0 -17 -33 24 -52
47 -22 64 -52 49 -84 -10 -23 -9 -24 34 -24 l45 0 0 80 c0 44 -2 80 -5 80 -3
0 -17 -12 -30 -26 l-25 -27 0 32 c0 17 -4 31 -10 31 -5 0 -10 -12 -10 -26z"/>
<path d="M420 338 l-1 -33 -20 28 c-11 15 -25 27 -30 27 -5 0 -9 -36 -9 -81
l0 -80 27 3 c24 3 31 12 53 74 29 76 28 94 -1 94 -15 0 -19 -7 -19 -32z"/>
<path d="M526 361 c-4 -5 7 -42 22 -83 24 -63 31 -73 52 -73 33 0 38 40 11 93
-32 63 -69 90 -85 63z"/>
<path d="M635 360 c-3 -5 2 -25 13 -45 l18 -36 17 36 c10 20 15 41 12 46 -8
12 -52 12 -60 -1z"/>
<path d="M734 363 c-23 -16 -66 -115 -60 -139 6 -22 12 -24 67 -24 l60 0 -3
83 c-3 79 -4 82 -28 85 -14 1 -30 -1 -36 -5z"/>
<path d="M466 308 c-9 -35 -8 -38 15 -38 16 0 19 4 14 23 -11 35 -22 41 -29
15z"/>
<path d="M447 244 c-4 -4 -7 -16 -7 -26 0 -14 8 -18 41 -18 36 0 40 2 37 23
-2 16 -11 23 -33 25 -17 2 -34 0 -38 -4z"/>
<path d="M91 166 c-9 -10 -6 -27 11 -71 l22 -58 19 57 c10 31 16 63 13 71 -7
19 -50 19 -65 1z"/>
<path d="M171 129 c-13 -28 -25 -67 -28 -86 l-6 -34 39 3 39 3 0 79 c0 49 -4
81 -11 83 -6 2 -21 -20 -33 -48z"/>
<path d="M270 161 c-11 -21 -14 -110 -4 -135 10 -26 34 -19 34 11 l0 26 23
-20 c30 -27 52 -34 66 -20 18 18 13 26 -39 52 -42 21 -50 30 -50 53 0 15 5 33
12 40 9 9 7 12 -10 12 -12 0 -26 -9 -32 -19z"/>
<path d="M430 154 l0 -25 -26 20 c-15 12 -35 21 -46 21 -32 0 -17 -33 24 -52
47 -22 64 -52 49 -84 -10 -23 -9 -24 34 -24 l45 0 0 80 c0 44 -4 80 -9 80 -5
0 -19 -12 -30 -27 l-20 -28 -1 33 c0 17 -4 32 -10 32 -5 0 -10 -12 -10 -26z"/>
<path d="M617 173 c-4 -3 -7 -16 -8 -27 0 -21 0 -21 -16 2 -8 12 -19 22 -24
22 -5 0 -9 -36 -9 -81 l0 -80 27 3 c23 3 30 12 51 70 13 37 22 74 19 83 -7 15
-28 20 -40 8z"/>
<path d="M721 163 c1 -30 53 -148 64 -145 6 1 10 36 10 80 l0 77 -37 3 c-31 3
-38 0 -37 -15z"/>
<path d="M0 90 l0 -80 40 0 c22 0 40 4 40 9 0 6 -12 42 -26 80 -36 98 -54 95
-54 -9z"/>
<path d="M666 118 c-9 -35 -8 -38 15 -38 16 0 19 4 14 23 -11 35 -22 41 -29
15z"/>
<path d="M647 54 c-4 -4 -7 -16 -7 -26 0 -14 8 -18 41 -18 36 0 40 2 37 23 -2
16 -11 23 -33 25 -17 2 -34 0 -38 -4z"/>
</g>
</svg>
